<svg width="37" height="37" viewBox="0 0 37 37" fill="none" xmlns="http://www.w3.org/2000/svg">
<path d="M8.00398 31.4696C3.59078 31.4696 0 27.8792 0 23.4656C0 19.0521 3.59078 15.461 8.00398 15.461C12.4175 15.461 16.008 19.0519 16.008 23.4656C16.0083 27.8792 12.4175 31.4696 8.00398 31.4696ZM8.00398 17.0823C4.48423 17.0823 1.621 19.9459 1.621 23.4657C1.621 26.9851 4.48459 29.8487 8.00398 29.8487C11.5237 29.8487 14.387 26.9851 14.387 23.4657C14.3873 19.9459 11.5237 17.0823 8.00398 17.0823Z" fill="#009460"/>
<path d="M28.996 31.4696C24.5824 31.4696 20.9916 27.8792 20.9916 23.4656C20.9916 19.0521 24.5824 15.461 28.996 15.461C33.4095 15.461 37 19.0519 37 23.4656C37.0003 27.8792 33.4095 31.4696 28.996 31.4696ZM28.996 17.0823C25.4762 17.0823 22.6127 19.9459 22.6127 23.466C22.6127 26.9854 25.4762 29.849 28.996 29.849C32.5158 29.849 35.3789 26.9854 35.3789 23.466C35.3793 19.9459 32.5158 17.0823 28.996 17.0823Z" fill="#009460"/>
<path d="M1.53636 20.995C1.44978 20.995 1.36164 20.9807 1.27506 20.9511C0.85131 20.8068 0.625076 20.3465 0.769329 19.9228L4.81717 8.03895C5.05284 7.10233 5.73142 6.34757 6.73248 5.91034C7.66843 5.50152 8.79144 5.42021 9.89432 5.68145C10.3297 5.78453 10.5994 6.22121 10.496 6.65694C10.3932 7.09235 9.95786 7.36272 9.52051 7.25867C8.75734 7.07742 7.99745 7.12639 7.38114 7.39585C6.84427 7.63055 6.49029 8.006 6.38425 8.45332L6.36284 8.52763L2.30369 20.4455C2.18864 20.7827 1.87384 20.995 1.53636 20.995Z" fill="#009460"/>
<path d="M35.4085 20.9946C35.071 20.9946 34.7563 20.7823 34.6412 20.4451L30.5606 8.45263C30.4546 8.0053 30.1006 7.62992 29.5637 7.3951C28.9475 7.12673 28.1875 7.07673 27.4244 7.25798C26.9871 7.36076 26.5519 7.09136 26.4488 6.65624C26.3457 6.22052 26.6151 5.78383 27.0505 5.68075C28.1534 5.41945 29.2764 5.50053 30.2123 5.90965C31.2132 6.34724 31.892 7.102 32.1278 8.03825L36.1756 19.9221C36.3199 20.3458 36.0933 20.8058 35.6696 20.9504C35.5833 20.9804 35.4951 20.9946 35.4085 20.9946Z" fill="#009460"/>
<path d="M21.8015 24.2764C21.6776 24.2764 21.5518 24.2478 21.4342 24.1879C21.4252 24.1834 20.2068 23.5858 18.4231 23.5858C16.6689 23.5858 15.6072 24.1655 15.5968 24.1714C15.2078 24.3883 14.714 24.2515 14.4946 23.8637C14.2751 23.476 14.4074 22.9852 14.7938 22.7635C14.8505 22.7307 16.2086 21.9653 18.4231 21.9653C20.6166 21.9653 22.1076 22.7126 22.1701 22.744C22.5689 22.9473 22.7274 23.4355 22.5241 23.8339C22.3812 24.1147 22.0966 24.2762 21.8015 24.2764Z" fill="#009460"/>
</svg>
