<svg id="SvgjsSvg1001" width="288" height="288" xmlns="http://www.w3.org/2000/svg" version="1.1" xmlns:xlink="http://www.w3.org/1999/xlink" xmlns:svgjs="http://svgjs.com/svgjs"><defs id="SvgjsDefs1002"></defs><g id="SvgjsG1008"><svg xmlns="http://www.w3.org/2000/svg" viewBox="0 0 32 32" width="288" height="288"><g data-name="Layer 2" fill="#b9b9b9" class="color000 svgShape"><path d="M16,12a2,2,0,1,1,2-2A2,2,0,0,1,16,12Zm0-2Z" fill="#b9b9b9" class="color000 svgShape"></path><path d="M16,29A13,13,0,1,1,29,16,13,13,0,0,1,16,29ZM16,5A11,11,0,1,0,27,16,11,11,0,0,0,16,5Z" fill="#b9b9b9" class="color000 svgShape"></path><path d="M16,24a2,2,0,0,1-2-2V16a2,2,0,0,1,4,0v6A2,2,0,0,1,16,24Zm0-8v0Z" fill="#b9b9b9" class="color000 svgShape"></path></g><rect width="32" height="32" fill="none"></rect></svg></g></svg>