<svg width="88" height="32" viewBox="0 0 88 32" fill="none" xmlns="http://www.w3.org/2000/svg">
<path d="M58.9 15.7C58.8 15.3 58.4 15 58 15H52L55.9 3.3C56 2.9 55.9 2.4 55.5 2.2C55.1 1.9 54.7 2 54.3 2.2L37.3 15.2C37 15.5 36.8 15.9 37 16.3C37.2 16.7 37.6 17 38 17H44L40.1 28.7C40 29.1 40.1 29.6 40.5 29.8C40.6 29.9 40.8 30 41 30C41.2 30 41.4 29.9 41.6 29.8L58.6 16.8C58.9 16.5 59.1 16.1 58.9 15.7Z" fill="#D33030"/>
<path d="M5.824 4.448C6.752 4.448 7.56267 4.72 8.256 5.264C8.94933 5.808 9.296 6.512 9.296 7.376C9.296 7.83467 9.168 8.21333 8.912 8.512C8.656 8.81067 8.34133 8.96 7.968 8.96C7.59467 8.96 7.296 8.912 7.072 8.816C7.104 8.64533 7.12 8.464 7.12 8.272C7.10933 7.6 6.944 7.056 6.624 6.64C6.304 6.21333 5.83467 6 5.216 6C4.608 6 4.04267 6.19733 3.52 6.592C3.21067 7.04 2.97067 7.62667 2.8 8.352C2.62933 9.07733 2.544 9.792 2.544 10.496C2.544 11.6693 2.768 12.656 3.216 13.456C3.67467 14.2453 4.384 14.64 5.344 14.64C6.22933 14.64 6.82667 14.304 7.136 13.632C7.424 13.0453 7.568 12.2667 7.568 11.296C8.112 11.296 8.56533 11.3973 8.928 11.6C9.29067 11.792 9.472 12.112 9.472 12.56C9.472 13.6053 9.01333 14.4747 8.096 15.168C7.17867 15.8507 6.144 16.192 4.992 16.192C3.488 16.192 2.34667 15.696 1.568 14.704C0.789333 13.7013 0.4 12.3467 0.4 10.64C0.4 8.93333 0.885333 7.47733 1.856 6.272C2.83733 5.056 4.16 4.448 5.824 4.448ZM13.5409 16.192C12.3675 16.192 11.5035 15.8507 10.9489 15.168C10.3942 14.4747 10.1169 13.5147 10.1169 12.288C10.1169 11.0507 10.4849 9.97867 11.2209 9.072C11.9569 8.16533 12.9009 7.712 14.0529 7.712C16.4209 7.712 17.6049 9.04533 17.6049 11.712C17.6049 12.96 17.2209 14.0213 16.4529 14.896C15.6849 15.76 14.7142 16.192 13.5409 16.192ZM12.3889 9.472C12.1969 10.0907 12.1009 10.7093 12.1009 11.328C12.1009 11.9467 12.1222 12.4267 12.1649 12.768C12.2075 13.1093 12.2875 13.4507 12.4049 13.792C12.6502 14.4853 13.1302 14.832 13.8449 14.832C14.5702 14.832 15.0449 14.64 15.2689 14.256C15.5035 13.872 15.6209 13.28 15.6209 12.48C15.6209 10.208 15.0822 9.072 14.0049 9.072C13.3862 9.072 12.8475 9.20533 12.3889 9.472ZM23.9353 4.192C24.2766 4.064 24.6286 4 24.9913 4C25.3539 4 25.6526 4.12267 25.8873 4.368C26.1219 4.60267 26.2393 4.90133 26.2393 5.264C26.2393 5.616 26.1859 6.45867 26.0793 7.792C25.9726 9.11467 25.9193 10.4213 25.9193 11.712C25.9193 12.992 26.0473 14.3573 26.3033 15.808C25.9193 15.936 25.5193 16 25.1033 16C24.3993 16 24.0473 15.504 24.0473 14.512C24.0473 14.1813 24.1166 13.5893 24.2553 12.736C23.8073 13.6853 23.4073 14.3893 23.0553 14.848C22.7139 15.3067 22.3779 15.632 22.0473 15.824C21.7273 16.0053 21.3859 16.096 21.0233 16.096C20.2126 16.096 19.5886 15.7973 19.1513 15.2C18.7246 14.6027 18.5113 13.8667 18.5113 12.992C18.5113 12.1173 18.6659 11.296 18.9753 10.528C19.2953 9.74933 19.7699 9.104 20.3993 8.592C21.0393 8.06933 21.7166 7.808 22.4313 7.808C23.1459 7.808 23.7646 7.904 24.2873 8.096C24.2659 6.72 24.1486 5.41867 23.9353 4.192ZM24.2873 9.456C23.7646 9.264 23.1993 9.168 22.5913 9.168C21.9833 9.168 21.4606 9.344 21.0233 9.696C20.6606 10.56 20.4793 11.5253 20.4793 12.592C20.4793 13.0827 20.5486 13.552 20.6873 14C20.8259 14.448 21.0553 14.672 21.3753 14.672C21.8659 14.672 22.4206 14.1227 23.0393 13.024C23.6686 11.9253 24.0846 10.736 24.2873 9.456ZM29.2251 12.368C29.2251 13.136 29.3478 13.744 29.5931 14.192C29.8385 14.6293 30.2491 14.848 30.8251 14.848C31.4011 14.848 31.8491 14.656 32.1691 14.272C32.4998 13.8773 32.6651 13.4027 32.6651 12.848C33.0278 12.848 33.3425 12.9387 33.6091 13.12C33.8758 13.3013 34.0091 13.552 34.0091 13.872C34.0091 14.5333 33.6571 15.088 32.9531 15.536C32.2491 15.9733 31.5078 16.192 30.7291 16.192C29.5131 16.192 28.6331 15.8667 28.0891 15.216C27.5451 14.5547 27.2731 13.5787 27.2731 12.288C27.2731 10.9973 27.6358 9.91467 28.3611 9.04C29.0971 8.15467 30.0731 7.712 31.2891 7.712C32.1211 7.712 32.7878 7.904 33.2891 8.288C33.8011 8.66133 34.0571 9.248 34.0571 10.048C34.0571 10.8373 33.6945 11.4347 32.9691 11.84C32.2545 12.2347 31.3798 12.432 30.3451 12.432C29.9825 12.432 29.6091 12.4107 29.2251 12.368ZM29.2411 11.104C29.5611 11.168 29.8971 11.2 30.2491 11.2C31.0171 11.2 31.6625 11.056 32.1851 10.768C32.2491 10.512 32.2811 10.3093 32.2811 10.16C32.2811 9.78667 32.1478 9.504 31.8811 9.312C31.6145 9.12 31.2465 9.024 30.7771 9.024C30.3185 9.024 29.9025 9.17333 29.5291 9.472C29.3371 10.0267 29.2411 10.5707 29.2411 11.104Z" fill="black"/>
<path d="M67.032 22.56C67.512 23.5733 68.12 24.4587 68.856 25.216C69.592 25.9733 70.3227 26.464 71.048 26.688C71.048 27.136 70.9307 27.4827 70.696 27.728C70.4613 27.9733 70.1253 28.096 69.688 28.096C69.1227 28.096 68.4773 27.7333 67.752 27.008C67.0267 26.272 66.392 25.408 65.848 24.416C65.3147 23.4133 65 22.5333 64.904 21.776C65.672 21.776 66.3013 21.5733 66.792 21.168C67.2933 20.752 67.544 20.1653 67.544 19.408C67.544 18.448 66.9467 17.968 65.752 17.968C65.368 17.968 64.8987 18.032 64.344 18.16C64.2693 19.6 64.232 20.7627 64.232 21.648C64.232 24.4853 64.344 26.5387 64.568 27.808C64.2267 27.936 63.864 28 63.48 28C63.096 28 62.76 27.8773 62.472 27.632C62.1947 27.3867 62.056 27.0613 62.056 26.656C62.056 26.2507 62.1093 25.5467 62.216 24.544C62.3227 23.5307 62.376 22.72 62.376 22.112C62.376 20.2453 62.2427 18.5867 61.976 17.136C63.416 16.7413 64.7867 16.544 66.088 16.544C68.4667 16.544 69.656 17.392 69.656 19.088C69.656 19.8347 69.4 20.5387 68.888 21.2C68.3867 21.8507 67.768 22.304 67.032 22.56ZM73.4751 24.368C73.4751 25.136 73.5978 25.744 73.8431 26.192C74.0885 26.6293 74.4991 26.848 75.0751 26.848C75.6511 26.848 76.0991 26.656 76.4191 26.272C76.7498 25.8773 76.9151 25.4027 76.9151 24.848C77.2778 24.848 77.5925 24.9387 77.8591 25.12C78.1258 25.3013 78.2591 25.552 78.2591 25.872C78.2591 26.5333 77.9071 27.088 77.2031 27.536C76.4991 27.9733 75.7578 28.192 74.9791 28.192C73.7631 28.192 72.8831 27.8667 72.3391 27.216C71.7951 26.5547 71.5231 25.5787 71.5231 24.288C71.5231 22.9973 71.8858 21.9147 72.6111 21.04C73.3471 20.1547 74.3231 19.712 75.5391 19.712C76.3711 19.712 77.0378 19.904 77.5391 20.288C78.0511 20.6613 78.3071 21.248 78.3071 22.048C78.3071 22.8373 77.9445 23.4347 77.2191 23.84C76.5045 24.2347 75.6298 24.432 74.5951 24.432C74.2325 24.432 73.8591 24.4107 73.4751 24.368ZM73.4911 23.104C73.8111 23.168 74.1471 23.2 74.4991 23.2C75.2671 23.2 75.9125 23.056 76.4351 22.768C76.4991 22.512 76.5311 22.3093 76.5311 22.16C76.5311 21.7867 76.3978 21.504 76.1311 21.312C75.8645 21.12 75.4965 21.024 75.0271 21.024C74.5685 21.024 74.1525 21.1733 73.7791 21.472C73.5871 22.0267 73.4911 22.5707 73.4911 23.104ZM86.0724 25.472C85.699 26.1973 85.2297 26.816 84.6644 27.328C84.099 27.84 83.5337 28.096 82.9684 28.096C82.403 28.096 81.9657 27.904 81.6564 27.52C81.3577 27.1253 81.1444 26.624 81.0164 26.016C80.8884 25.3973 80.771 24.7627 80.6644 24.112C80.5684 23.4613 80.3977 22.8267 80.1524 22.208C79.907 21.5893 79.571 21.1253 79.1444 20.816C79.283 20.56 79.491 20.3467 79.7684 20.176C80.0457 19.9947 80.3444 19.904 80.6644 19.904C81.1657 19.904 81.571 20.2293 81.8804 20.88C82.1897 21.52 82.387 22.2293 82.4724 23.008C82.5684 23.7867 82.6697 24.544 82.7764 25.28C82.8937 26.0053 83.027 26.4213 83.1764 26.528C83.539 26.5067 83.8537 26.2773 84.1204 25.84C84.3977 25.392 84.6004 24.8533 84.7284 24.224C84.963 23.072 85.0804 22.1707 85.0804 21.52C85.0804 20.8693 85.0484 20.368 84.9844 20.016C85.3577 19.9413 85.6777 19.904 85.9444 19.904C86.8617 19.904 87.3204 20.3413 87.3204 21.216C87.3204 21.7707 87.203 22.4373 86.9684 23.216C86.7444 23.984 86.4457 24.736 86.0724 25.472Z" fill="#D33030"/>
</svg>
