<svg width="71" height="38" viewBox="0 0 71 38" fill="none" xmlns="http://www.w3.org/2000/svg">
<path d="M45.5872 19C45.5872 22.9937 44.3704 26.5256 42.507 29.0102C40.6441 31.4941 38.2363 32.8275 35.7598 32.8275C33.2832 32.8275 30.8754 31.4941 29.0125 29.0102C27.1491 26.5256 25.9323 22.9937 25.9323 19C25.9323 15.0063 27.1491 11.4744 29.0125 8.98982C30.8754 6.50592 33.2832 5.17254 35.7598 5.17254C38.2363 5.17254 40.6441 6.50592 42.507 8.98982C44.3704 11.4744 45.5872 15.0063 45.5872 19Z" stroke="#FF6464" stroke-width="4.34509"/>
<path d="M22 34.28L4 19L22 3.71997" stroke="#312828" stroke-width="4.34509" stroke-linecap="square"/>
<path d="M49.5195 34.28L67.5195 19L49.5195 3.71997" stroke="#312828" stroke-width="4.34509" stroke-linecap="square"/>
<line x1="44.6231" y1="9.36694" x2="27.5031" y2="27.6069" stroke="#FF6464" stroke-width="4.34509"/>
</svg>
