<svg width="56" height="56" viewBox="0 0 56 56" fill="none" xmlns="http://www.w3.org/2000/svg">
<path d="M28.5063 12.875C34.618 12.875 39.2946 17.997 39.2946 24.4787L39.2882 27.0236C39.2886 27.5596 39.5978 28.1126 40.3991 29.0556C40.4944 29.1678 40.3959 29.0536 40.7781 29.4959C42.215 31.1583 42.7767 32.1045 42.7767 33.5425C42.7767 33.8038 42.7687 33.9815 42.7334 34.223C42.6803 34.5856 42.5763 34.9374 42.4045 35.2753C41.764 36.5351 40.3813 37.25 38.2499 37.25H34.3625L34.3286 37.3769C33.4591 40.4673 31.4593 42.125 28.4999 42.125C25.5005 42.125 23.4869 40.4222 22.6366 37.2508L18.7499 37.25C16.5561 37.25 15.1609 36.5169 14.5494 35.2163C14.3975 34.8933 14.3065 34.5589 14.2606 34.2123C14.2298 33.9806 14.2231 33.8106 14.2231 33.5425C14.2231 32.105 14.7838 31.1589 16.2179 29.4966C16.5995 29.0543 16.5011 29.1685 16.5962 29.0564C17.3967 28.1125 17.7053 27.5593 17.7053 27.0224V24.476C17.7053 17.9994 22.3927 12.875 28.5063 12.875ZM32.1813 37.2506H24.8186C25.4751 39.1675 26.6566 40.0357 28.4999 40.0357C30.3433 40.0357 31.5248 39.1675 32.1813 37.2506ZM28.5063 14.9643C23.5902 14.9643 19.7946 19.1138 19.7946 24.476V27.0224C19.7946 28.2067 19.2916 29.1084 18.1896 30.4077C18.1304 30.4776 18.0684 30.55 17.9935 30.6369C17.8961 30.7499 17.8961 30.7499 17.7998 30.8614C16.6876 32.1506 16.3124 32.7837 16.3124 33.5425C16.3124 33.905 16.3403 34.1149 16.4401 34.3273C16.6754 34.8278 17.309 35.1607 18.7499 35.1607H38.2499C39.6459 35.1607 40.2876 34.8289 40.542 34.3285C40.6554 34.1055 40.6874 33.8866 40.6874 33.5425C40.6874 32.7842 40.3116 32.1512 39.1974 30.8621C39.101 30.7506 39.101 30.7506 39.0034 30.6377C38.9284 30.5507 38.8663 30.4783 38.8069 30.4084C37.7029 29.109 37.1989 28.2072 37.1989 27.0224L37.2053 24.476C37.2053 19.1106 33.4196 14.9643 28.5063 14.9643Z" fill="black"/>
</svg>
