<svg width="78" height="88" viewBox="0 0 78 88" fill="none" xmlns="http://www.w3.org/2000/svg">
<path d="M7.15067 1.55533L74.9502 40.6991C77.6832 42.2772 77.6832 46.2231 74.9502 47.8012L7.15067 86.945C4.41762 88.523 1 86.55 1 83.3939V5.10636C1 1.95028 4.41587 -0.0227092 7.15067 1.55533Z" fill="#91C483"/>
<path d="M74.9502 40.6993L7.1507 1.55546C6.74171 1.32025 6.31867 1.18684 5.89388 1.10083L71.4395 38.9439C74.1726 40.522 74.1726 44.4679 71.4395 46.046L3.64005 85.1898C3.02744 85.5426 2.38323 85.6953 1.7478 85.7181C2.8993 87.3646 5.19 88.0755 7.1507 86.9451L74.9502 47.8013C77.6832 46.2233 77.6832 42.2773 74.9502 40.6993Z" fill="#91C483"/>
<path d="M7.15067 1.55533L74.9502 40.6991C77.6832 42.2772 77.6832 46.2231 74.9502 47.8012L7.15067 86.945C4.41762 88.523 1 86.55 1 83.3939V5.10636C1 1.95028 4.41587 -0.0227092 7.15067 1.55533Z" fill="#91C483" stroke="#91C483" stroke-miterlimit="10"/>
</svg>
