<svg width="78" height="88" xmlns="http://www.w3.org/2000/svg" fill="#312828" opacity="0.5">
    <path d="M7.15 1.555 74.95 40.7c2.733 1.578 2.733 5.524 0 7.102L7.15 86.945C4.419 88.523 1 86.55 1 83.394V5.106C1 1.95 4.416-.023 7.15 1.556z"/>
    <path d="M74.95 40.7 7.15 1.554a4.113 4.113 0 0 0-1.256-.454L71.44 38.944c2.733 1.578 2.733 5.524 0 7.102L3.64 85.19a4.03 4.03 0 0 1-1.892.528c1.151 1.647 3.442 2.358 5.403 1.227l67.8-39.144c2.732-1.578 2.732-5.524 0-7.102z"/>
    <path d="M7.15 1.555 74.95 40.7c2.733 1.578 2.733 5.524 0 7.102L7.15 86.945C4.419 88.523 1 86.55 1 83.394V5.106C1 1.95 4.416-.023 7.15 1.556z"/>
</svg>
