<svg width="25" height="25" viewBox="0 0 25 25" fill="none" xmlns="http://www.w3.org/2000/svg">
<path d="M22.816 2.184C21.132 0.5 18.421 0.5 13 0.5H12C6.579 0.5 3.868 0.5 2.184 2.184C0.5 3.868 0.5 6.579 0.5 12V13C0.5 18.421 0.5 21.131 2.184 22.816C3.868 24.501 6.579 24.5 12 24.5H13C18.421 24.5 21.131 24.5 22.816 22.816C24.5 21.132 24.5 18.421 24.5 13V12C24.5 6.579 24.5 3.868 22.816 2.184ZM20.003 17.5H18.253C17.586 17.5 17.39 16.968 16.203 15.781C15.164 14.78 14.719 14.65 14.46 14.65C14.107 14.65 14.002 14.75 14.002 15.25V16.819C14.002 17.249 13.865 17.5 12.752 17.5C10.898 17.5 8.86 16.374 7.413 14.298C5.243 11.257 4.65 8.958 4.65 8.495C4.65 8.235 4.75 8 5.25 8H7.001C7.448 8 7.616 8.196 7.784 8.68C8.64 11.173 10.084 13.352 10.677 13.352C10.899 13.352 11.001 13.249 11.001 12.685V10.108C10.936 8.922 10.305 8.824 10.305 8.402C10.305 8.207 10.472 8 10.75 8H13.501C13.872 8 14.001 8.198 14.001 8.643V12.11C14.001 12.48 14.162 12.61 14.273 12.61C14.496 12.61 14.681 12.48 15.089 12.072C16.35 10.663 17.24 8.494 17.24 8.494C17.352 8.234 17.556 7.999 18.002 7.999H19.752C20.281 7.999 20.393 8.271 20.281 8.642C20.058 9.662 17.926 12.665 17.926 12.665C17.74 12.962 17.666 13.11 17.926 13.444C18.112 13.704 18.723 14.223 19.131 14.705C19.883 15.551 20.45 16.264 20.608 16.756C20.754 17.25 20.503 17.5 20.003 17.5Z" fill="#0077FF"/>
</svg>
