<svg width="73" height="73" viewBox="0 0 73 73" fill="none" xmlns="http://www.w3.org/2000/svg">
<path d="M43.3438 22.8125C44.603 22.8125 45.625 21.7905 45.625 20.5313V11.4063C45.625 10.147 44.603 9.125 43.3438 9.125C42.0845 9.125 41.0625 10.147 41.0625 11.4063V20.5313C41.0625 21.7905 42.0845 22.8125 43.3438 22.8125ZM63.875 0H9.125C4.08573 0 0 4.08573 0 9.125V63.875C0 68.9143 4.08573 73 9.125 73H63.875C68.9143 73 73 68.9143 73 63.875V9.125C73 4.08573 68.9143 0 63.875 0ZM18.25 4.5625H54.75V25.0938C54.75 26.353 53.728 27.375 52.4688 27.375H20.5313C19.272 27.375 18.25 26.353 18.25 25.0938V4.5625ZM68.4375 63.875C68.4375 66.3958 66.3958 68.4375 63.875 68.4375H9.125C6.60423 68.4375 4.5625 66.3958 4.5625 63.875V9.125C4.5625 6.60423 6.60423 4.5625 9.125 4.5625H13.6875V27.375C13.6875 29.8935 15.7292 31.9375 18.25 31.9375H54.75C57.2708 31.9375 59.3125 29.8935 59.3125 27.375V4.5625H63.875C66.3958 4.5625 68.4375 6.6065 68.4375 9.125V63.875Z" fill="#1E90FF"/>
</svg>
